<?xml version="1.0" encoding="utf-8"?>
<!-- Generator: Adobe Illustrator 16.0.0, SVG Export Plug-In . SVG Version: 6.00 Build 0)  -->
<!DOCTYPE svg PUBLIC "-//W3C//DTD SVG 1.1//EN" "http://www.w3.org/Graphics/SVG/1.1/DTD/svg11.dtd">
<svg version="1.1" id="Layer_1" xmlns="http://www.w3.org/2000/svg" xmlns:xlink="http://www.w3.org/1999/xlink" x="0px" y="0px"
	 width="80px" height="16px" viewBox="0 0 80 16" enable-background="new 0 0 80 16" xml:space="preserve">
<path fill="#FFFFFF" d="M74,2h-4v2h-4v2h2v7c0,0.553,0.447,1,1,1h6c0.553,0,1-0.447,1-1V6h2V4h-4V2z M74,6v6h-4V6H74z"/>
<path fill="#FFFFFF" d="M58.7,2.508c-1.125,0-2.101,0.575-2.7,1.438c-0.6-0.863-1.575-1.438-2.7-1.438c-1.8,0-3.3,1.438-3.3,3.164
	c0,3.164,6,7.839,6,7.839s6-4.675,6-7.839C62,3.946,60.5,2.508,58.7,2.508z"/>
<path fill="#FFFFFF" d="M10.651,2.364c-0.397-0.397-0.994-0.397-1.392,0L2.298,9.326C2.1,9.525,2,9.724,2,10.021v2.984
	C2,13.602,2.397,14,2.995,14h2.983c0.298,0,0.498-0.1,0.696-0.299l6.961-6.961c0.398-0.397,0.398-0.994,0-1.393L10.651,2.364z
	 M5.58,12.011H3.988V10.42l5.967-5.967l1.591,1.591L5.58,12.011z"/>
<path fill="#FFFFFF" d="M27.651,2.364c-0.397-0.397-0.994-0.397-1.392,0l-6.962,6.962C19.1,9.525,19,9.724,19,10.021v2.984
	C19,13.602,19.397,14,19.995,14h2.983c0.298,0,0.498-0.1,0.696-0.299l6.961-6.961c0.398-0.397,0.398-0.994,0-1.393L27.651,2.364z
	 M22.58,12.011h-1.592V10.42l5.967-5.967l1.591,1.591L22.58,12.011z"/>
<path fill="#FFFFFF" d="M42.438,2h-4v2h-4v2h2v7c0,0.553,0.447,1,1,1h6c0.553,0,1-0.447,1-1V6h2V4h-4V2z M42.438,6v6h-4V6H42.438z"
	/>
</svg>
